<mxfile host="app.diagrams.net" modified="2022-09-08T08:59:07.716Z" agent="5.0 (Windows)" etag="WXsiU1Lb4stPbobf8EiI" version="20.3.0" type="github">
  <diagram id="-rbDWnDZrFqwo_LY68Zk" name="Page-1">
    <mxGraphModel dx="1422" dy="744" grid="1" gridSize="10" guides="1" tooltips="1" connect="1" arrows="1" fold="1" page="1" pageScale="1" pageWidth="850" pageHeight="1100" math="0" shadow="0">
      <root>
        <mxCell id="0" />
        <mxCell id="1" parent="0" />
        <mxCell id="l4sSPAA34o7DoIbVe41t-6" value="dataset" style="edgeStyle=orthogonalEdgeStyle;rounded=0;orthogonalLoop=1;jettySize=auto;html=1;exitX=0.5;exitY=1;exitDx=0;exitDy=0;" edge="1" parent="1" source="l4sSPAA34o7DoIbVe41t-1" target="l4sSPAA34o7DoIbVe41t-10">
          <mxGeometry relative="1" as="geometry" />
        </mxCell>
        <mxCell id="l4sSPAA34o7DoIbVe41t-1" value="&lt;div&gt;start&lt;/div&gt;" style="rounded=1;whiteSpace=wrap;html=1;" vertex="1" parent="1">
          <mxGeometry x="180" y="20" width="120" height="60" as="geometry" />
        </mxCell>
        <mxCell id="l4sSPAA34o7DoIbVe41t-7" value="image" style="edgeStyle=orthogonalEdgeStyle;rounded=0;orthogonalLoop=1;jettySize=auto;html=1;exitX=0;exitY=0.5;exitDx=0;exitDy=0;" edge="1" parent="1" source="l4sSPAA34o7DoIbVe41t-2" target="l4sSPAA34o7DoIbVe41t-3">
          <mxGeometry relative="1" as="geometry" />
        </mxCell>
        <mxCell id="l4sSPAA34o7DoIbVe41t-8" value="text" style="edgeStyle=orthogonalEdgeStyle;rounded=0;orthogonalLoop=1;jettySize=auto;html=1;exitX=0.5;exitY=1;exitDx=0;exitDy=0;" edge="1" parent="1" source="l4sSPAA34o7DoIbVe41t-2" target="l4sSPAA34o7DoIbVe41t-4">
          <mxGeometry relative="1" as="geometry" />
        </mxCell>
        <mxCell id="l4sSPAA34o7DoIbVe41t-9" value="other" style="edgeStyle=orthogonalEdgeStyle;rounded=0;orthogonalLoop=1;jettySize=auto;html=1;exitX=1;exitY=0.5;exitDx=0;exitDy=0;" edge="1" parent="1" source="l4sSPAA34o7DoIbVe41t-2" target="l4sSPAA34o7DoIbVe41t-5">
          <mxGeometry relative="1" as="geometry" />
        </mxCell>
        <mxCell id="l4sSPAA34o7DoIbVe41t-2" value="data type?" style="rhombus;whiteSpace=wrap;html=1;" vertex="1" parent="1">
          <mxGeometry x="520" y="510" width="80" height="80" as="geometry" />
        </mxCell>
        <mxCell id="l4sSPAA34o7DoIbVe41t-3" value="image processing type AI" style="rounded=1;whiteSpace=wrap;html=1;" vertex="1" parent="1">
          <mxGeometry x="360" y="640" width="120" height="60" as="geometry" />
        </mxCell>
        <mxCell id="l4sSPAA34o7DoIbVe41t-4" value="text processing type AI" style="rounded=1;whiteSpace=wrap;html=1;" vertex="1" parent="1">
          <mxGeometry x="500" y="640" width="120" height="60" as="geometry" />
        </mxCell>
        <mxCell id="l4sSPAA34o7DoIbVe41t-5" value="miscellaneous AI " style="rounded=1;whiteSpace=wrap;html=1;" vertex="1" parent="1">
          <mxGeometry x="640" y="640" width="120" height="60" as="geometry" />
        </mxCell>
        <mxCell id="l4sSPAA34o7DoIbVe41t-11" value="yes" style="edgeStyle=orthogonalEdgeStyle;rounded=0;orthogonalLoop=1;jettySize=auto;html=1;exitX=1;exitY=0.5;exitDx=0;exitDy=0;" edge="1" parent="1" source="l4sSPAA34o7DoIbVe41t-10" target="l4sSPAA34o7DoIbVe41t-18">
          <mxGeometry relative="1" as="geometry">
            <Array as="points">
              <mxPoint x="570" y="190" />
            </Array>
          </mxGeometry>
        </mxCell>
        <mxCell id="l4sSPAA34o7DoIbVe41t-13" value="no" style="edgeStyle=orthogonalEdgeStyle;rounded=0;orthogonalLoop=1;jettySize=auto;html=1;exitX=0;exitY=0.5;exitDx=0;exitDy=0;" edge="1" parent="1" source="l4sSPAA34o7DoIbVe41t-10" target="l4sSPAA34o7DoIbVe41t-12">
          <mxGeometry relative="1" as="geometry" />
        </mxCell>
        <mxCell id="l4sSPAA34o7DoIbVe41t-10" value="known data type?" style="rhombus;whiteSpace=wrap;html=1;" vertex="1" parent="1">
          <mxGeometry x="200" y="150" width="80" height="80" as="geometry" />
        </mxCell>
        <mxCell id="l4sSPAA34o7DoIbVe41t-14" value="on success" style="edgeStyle=orthogonalEdgeStyle;rounded=0;orthogonalLoop=1;jettySize=auto;html=1;exitX=1;exitY=0.5;exitDx=0;exitDy=0;entryX=0.5;entryY=1;entryDx=0;entryDy=0;" edge="1" parent="1" source="l4sSPAA34o7DoIbVe41t-12" target="l4sSPAA34o7DoIbVe41t-10">
          <mxGeometry relative="1" as="geometry" />
        </mxCell>
        <mxCell id="l4sSPAA34o7DoIbVe41t-16" value="on fail" style="edgeStyle=orthogonalEdgeStyle;rounded=0;orthogonalLoop=1;jettySize=auto;html=1;exitX=0.5;exitY=1;exitDx=0;exitDy=0;" edge="1" parent="1" source="l4sSPAA34o7DoIbVe41t-12" target="l4sSPAA34o7DoIbVe41t-15">
          <mxGeometry relative="1" as="geometry" />
        </mxCell>
        <mxCell id="l4sSPAA34o7DoIbVe41t-12" value="data analyzing" style="rounded=1;whiteSpace=wrap;html=1;" vertex="1" parent="1">
          <mxGeometry x="40" y="240" width="120" height="60" as="geometry" />
        </mxCell>
        <mxCell id="l4sSPAA34o7DoIbVe41t-17" style="edgeStyle=orthogonalEdgeStyle;rounded=0;orthogonalLoop=1;jettySize=auto;html=1;exitX=0.5;exitY=1;exitDx=0;exitDy=0;" edge="1" parent="1" source="l4sSPAA34o7DoIbVe41t-15" target="l4sSPAA34o7DoIbVe41t-1">
          <mxGeometry relative="1" as="geometry">
            <Array as="points">
              <mxPoint x="100" y="440" />
              <mxPoint x="10" y="440" />
              <mxPoint x="10" y="50" />
            </Array>
          </mxGeometry>
        </mxCell>
        <mxCell id="l4sSPAA34o7DoIbVe41t-15" value="manually enter data type" style="rounded=1;whiteSpace=wrap;html=1;" vertex="1" parent="1">
          <mxGeometry x="40" y="360" width="120" height="60" as="geometry" />
        </mxCell>
        <mxCell id="l4sSPAA34o7DoIbVe41t-21" value="yes" style="edgeStyle=orthogonalEdgeStyle;rounded=0;orthogonalLoop=1;jettySize=auto;html=1;exitX=0.5;exitY=1;exitDx=0;exitDy=0;" edge="1" parent="1" source="l4sSPAA34o7DoIbVe41t-18" target="l4sSPAA34o7DoIbVe41t-20">
          <mxGeometry relative="1" as="geometry" />
        </mxCell>
        <mxCell id="l4sSPAA34o7DoIbVe41t-22" value="no" style="edgeStyle=orthogonalEdgeStyle;rounded=0;orthogonalLoop=1;jettySize=auto;html=1;exitX=0.5;exitY=1;exitDx=0;exitDy=0;" edge="1" parent="1" source="l4sSPAA34o7DoIbVe41t-18" target="l4sSPAA34o7DoIbVe41t-19">
          <mxGeometry relative="1" as="geometry" />
        </mxCell>
        <mxCell id="l4sSPAA34o7DoIbVe41t-18" value="data is tagged?" style="rhombus;whiteSpace=wrap;html=1;" vertex="1" parent="1">
          <mxGeometry x="530" y="240" width="80" height="80" as="geometry" />
        </mxCell>
        <mxCell id="l4sSPAA34o7DoIbVe41t-19" value="supervised learning" style="rounded=1;whiteSpace=wrap;html=1;" vertex="1" parent="1">
          <mxGeometry x="610" y="380" width="120" height="60" as="geometry" />
        </mxCell>
        <mxCell id="l4sSPAA34o7DoIbVe41t-23" style="edgeStyle=orthogonalEdgeStyle;rounded=0;orthogonalLoop=1;jettySize=auto;html=1;exitX=0.5;exitY=1;exitDx=0;exitDy=0;" edge="1" parent="1" source="l4sSPAA34o7DoIbVe41t-20" target="l4sSPAA34o7DoIbVe41t-2">
          <mxGeometry relative="1" as="geometry" />
        </mxCell>
        <mxCell id="l4sSPAA34o7DoIbVe41t-20" value="unsupervised learning" style="rounded=1;whiteSpace=wrap;html=1;" vertex="1" parent="1">
          <mxGeometry x="410" y="380" width="120" height="60" as="geometry" />
        </mxCell>
        <mxCell id="l4sSPAA34o7DoIbVe41t-31" style="edgeStyle=orthogonalEdgeStyle;rounded=0;orthogonalLoop=1;jettySize=auto;html=1;exitX=0.5;exitY=1;exitDx=0;exitDy=0;" edge="1" parent="1" source="l4sSPAA34o7DoIbVe41t-19" target="l4sSPAA34o7DoIbVe41t-19">
          <mxGeometry relative="1" as="geometry" />
        </mxCell>
      </root>
    </mxGraphModel>
  </diagram>
</mxfile>
